<?xml version="1.0" encoding="UTF-8" standalone="no"?>
<!-- Created with Inkscape (http://www.inkscape.org/) -->

<svg
   version="1.1"
   id="svg1"
   width="751.61469"
   height="751.50269"
   viewBox="0 0 751.61468 751.50271"
   xmlns="http://www.w3.org/2000/svg"
   xmlns:svg="http://www.w3.org/2000/svg">
  <defs
     id="defs1" />
  <g
     id="g1"
     transform="translate(-374.76398,-378.91198)">
    <g
       id="group-R5">
      <path
         id="path3"
         d="m 8059.5,5678.36 c 0,-1341.92 -1087.62,-2429.84 -2430.36,-2429.84 -1341.54,0 -2429.78,1087.92 -2429.78,2429.84 0,1342.14 1088.24,2430.06 2429.78,2430.06 1342.74,0 2430.36,-1087.92 2430.36,-2430.06"
         style="fill:#ffffff;fill-opacity:1;fill-rule:nonzero;stroke:none"
         transform="matrix(0.13333333,0,0,-0.13333333,0,1511.8133)" />
      <path
         id="path4"
         d="m 5629.14,8290.04 c -1442.21,0 -2611.69,-1168.58 -2611.69,-2611.39 0,-1442.27 1169.48,-2611.75 2611.69,-2611.75 1442.5,0 2612.27,1169.48 2612.27,2611.75 0,1442.81 -1169.77,2611.39 -2612.27,2611.39 m 0,-4954.89 c -1293.75,0 -2343.14,1049.39 -2343.14,2343.5 0,1294.06 1049.39,2342.85 2343.14,2342.85 1294.63,0 2343.73,-1048.79 2343.73,-2342.85 0,-1294.11 -1049.1,-2343.5 -2343.73,-2343.5"
         style="fill:#231f20;fill-opacity:1;fill-rule:nonzero;stroke:none"
         transform="matrix(0.13333333,0,0,-0.13333333,0,1511.8133)" />
      <path
         id="path5"
         d="m 6746.04,6978.38 c -565.17,316.93 -1273.13,319.33 -1835.02,175.64 v 243.16 h -243.76 v -317.84 c -104.55,-37.64 -201.33,-80.65 -287.67,-127.25 0,0 121.29,14.94 287.67,5.08 V 4831.42 c -120.97,-186.7 -150.25,-368.32 -121.88,-577.73 32.56,-234.18 209.11,-390.72 348.61,-506.31 -82.15,236.28 -88.42,451.36 -64.22,581.3 46,242.86 188.48,417.6 803.25,550.54 637.76,137.4 1393.81,201.03 1643.55,820.34 113.8,283.19 184.3,877.63 -530.53,1278.82 M 5255.15,5379.57 c -136.83,-95.89 -250.34,-185.21 -344.13,-270.65 v 1815.99 c 189.98,-40.33 391.02,-122.48 529.92,-285.58 340.55,-402.66 225.24,-971.12 -185.79,-1259.76"
         style="fill:#231f20;fill-opacity:1;fill-rule:nonzero;stroke:none"
         transform="matrix(0.13333333,0,0,-0.13333333,0,1511.8133)" />
      <path
         id="path6"
         d="m 2810.73,5678.36 c 0,1557.21 1262.09,2818.4 2818.41,2818.4 1556.61,0 2818.7,-1261.19 2818.7,-2818.4 0,-1556.09 -1262.09,-2817.87 -2818.7,-2817.87 -1556.32,0 -2818.41,1261.78 -2818.41,2817.87 m 862.11,1956.9 c -500.95,-500.95 -810.72,-1192.49 -810.72,-1956.9 0,-763.9 309.77,-1455.42 810.72,-1956.37 500.65,-500.66 1192.47,-810.44 1956.3,-810.44 764.41,0 1455.94,309.78 1956.89,810.44 500.95,500.95 810.73,1192.47 810.73,1956.37 0,764.41 -309.78,1455.95 -810.73,1956.9 -500.95,500.64 -1192.48,810.12 -1956.89,810.12 -764.12,0 -1455.65,-309.48 -1956.3,-810.12"
         style="fill:#231f20;fill-opacity:1;fill-rule:nonzero;stroke:none"
         transform="matrix(0.13333333,0,0,-0.13333333,0,1511.8133)" />
      <path
         id="path7"
         d="m 1288.7213,664.79466 c 3.744,-0.836 7.408,-1.35334 11.032,-1.592 3.5853,-0.28 7.688,-0.43867 12.2267,-0.43867 7.488,0 15.0973,0.79467 22.82,2.42933 0.84,1.31467 1.56,3.26667 2.2266,5.81467 0.68,2.54933 1.36,5.25733 2,8.204 0.68,2.94667 1.2267,5.816 1.5867,8.604 0.44,2.828 0.76,5.17733 1.04,7.00933 2.3867,-4.26266 5.3333,-8.484 8.8,-12.62533 3.4667,-4.14133 7.6933,-7.80667 12.6267,-10.99333 4.9733,-3.22667 10.48,-5.81467 16.6533,-7.84534 6.1333,-1.992 12.9867,-2.988 20.4267,-2.988 11.5066,0 22.2666,2.14934 32.2666,6.412 10.04,4.26267 18.76,10.75467 26.24,19.43867 7.4934,8.68 13.3067,19.59467 17.4534,32.65733 4.1333,13.10534 6.2133,28.59867 6.2133,46.52134 0,17.36533 -2.56,32.93866 -7.6133,46.67866 -5.0934,13.78133 -12.4267,25.452 -22.0667,35.08933 -9.6,9.59867 -21.3467,17.008 -35.24,22.22534 -13.9067,5.21733 -29.68,7.84533 -47.32,7.84533 -4.5467,0 -9,-0.23867 -13.4267,-0.636 -4.4133,-0.39733 -8.08,-0.836 -10.9866,-1.39467 v 92.21467 c -5.1067,0.79733 -10,1.31466 -14.6614,1.592 -4.66,0.28 -9.28,0.4 -13.82,0.4 -4.5413,0 -9.16,-0.12 -13.86,-0.4 -4.66,-0.27734 -9.52,-0.79467 -14.6173,-1.592 z m 56.9587,163.53733 c 7.2,2.152 15.4533,3.188 24.8133,3.188 16.56,0 29.2667,-5.33867 38.0667,-16.012 8.8533,-10.71467 13.2666,-26.88534 13.2666,-48.512 0,-8.28533 -0.68,-15.972 -2.0266,-23.06133 -1.32,-7.08934 -3.6267,-13.144 -6.8134,-18.24134 -3.1866,-5.05733 -7.2933,-9.04266 -12.2266,-12.028 -4.9467,-2.908 -11.04,-4.38266 -18.24,-4.38266 -6.6534,0 -12.3467,1.236 -17.0134,3.78533 -4.6933,2.54933 -8.48,6.01333 -11.4266,10.43467 -2.9467,4.42133 -5.0934,9.55866 -6.4134,15.45333 -1.36,5.85467 -1.9866,12.148 -1.9866,18.8 v 70.576"
         style="fill:#f9a70d;fill-opacity:1;fill-rule:nonzero;stroke:none;stroke-width:0.133333" />
      <path
         id="path8"
         d="M 1538.0533,708.48799 H 1511.2 c -0.8267,-3.46667 -1.4267,-7.17067 -1.7867,-11.03467 -0.44,-3.86266 -0.64,-7.568 -0.64,-11.032 0,-7.20933 0.84,-14.29733 2.4267,-21.228 h 82.5733 v 207.22933 c -9.64,1.59334 -18.96,2.39067 -28.04,2.39067 -8.84,0 -18.04,-0.79733 -27.68,-2.39067 z m -8.4133,-78.18533 c -1.5867,-9.08 -2.4267,-18.04267 -2.4267,-26.844 0,-8.56533 0.84,-17.52533 2.4267,-26.88533 4.5466,-0.79734 9.4,-1.39467 14.6266,-1.792 5.2134,-0.39867 9.96,-0.59867 14.2134,-0.59867 4.5466,0 9.48,0.2 14.8533,0.59867 5.3467,0.39733 10.28,0.99466 14.8267,1.792 0.7866,4.58 1.3066,9.04133 1.5866,13.46266 0.28,4.38 0.4,8.88134 0.4,13.42267 0,4.26 -0.12,8.68133 -0.4,13.22267 -0.28,4.54133 -0.8,9.08 -1.5866,13.62133 -4.5467,0.796 -9.4,1.35467 -14.6267,1.59333 -5.2133,0.27867 -10.08,0.43867 -14.6533,0.43867 -4.2667,0 -9.08,-0.16 -14.4134,-0.43867 -5.3466,-0.23866 -10.28,-0.79733 -14.8266,-1.59333"
         style="fill:#f9a70d;fill-opacity:1;fill-rule:nonzero;stroke:none;stroke-width:0.133333" />
      <path
         id="path9"
         d="m 1649.8933,665.19332 c 4.0133,-0.79733 7.8,-1.396 11.3867,-1.832 3.6266,-0.4 7.5733,-0.59733 11.8266,-0.59733 4.0267,0 7.9734,0.27733 11.8267,0.836 3.9067,0.51867 7.6933,1.15467 11.44,1.99067 0.8267,1.35333 1.5067,3.26666 2.1867,5.816 0.68,2.548 1.32,5.17733 1.8266,8.00533 0.52,2.82667 1,5.616 1.4,8.404 0.4,2.788 0.72,5.17733 1,7.00933 5.8934,-8.24533 13.1067,-15.692 21.6667,-22.224 8.52,-6.532 19.2267,-9.83733 32.0133,-9.83733 2.72,0 5.7867,0.15867 9.24,0.39733 3.4667,0.28 6.0134,0.67734 7.6134,1.23467 0.56,2.66933 0.96,5.736 1.24,9.2 0.2266,3.46533 0.3866,7.09067 0.3866,10.83467 0,4.54 -0.1866,9.47866 -0.6266,14.816 -0.36,5.37733 -1.12,10.43466 -2.2,15.25466 -2.9467,-0.55866 -6.1734,-0.836 -9.7867,-0.836 h -6.6133 c -4.5867,0 -9.64,0.47734 -15.2134,1.39334 -5.6666,0.956 -11,3.42533 -16.0533,7.44933 -5.1067,3.98267 -9.28,9.996 -12.6267,18.04133 -3.3466,8.00534 -5.0266,19.23734 -5.0266,33.65467 v 98.616 c -4.8134,0.79733 -9.6,1.316 -14.4134,1.59466 -4.8133,0.27734 -9.52,0.39867 -14.0533,0.39867 -4.5467,0 -9.12,-0.12133 -13.8267,-0.39867 -4.6533,-0.27866 -9.56,-0.79733 -14.6133,-1.59466 V 665.19332"
         style="fill:#f9a70d;fill-opacity:1;fill-rule:nonzero;stroke:none;stroke-width:0.133333" />
      <path
         id="path10"
         d="m 1910.4133,736.12799 c 0,-6.412 -1.08,-11.62933 -3.1867,-15.612 -2.1466,-4.024 -5.0933,-7.17067 -8.84,-9.44 -3.7466,-2.26933 -8.3733,-3.824 -13.8266,-4.62133 -5.4934,-0.79467 -11.5467,-1.19334 -18.24,-1.19334 -14.4134,0 -29.7867,2.788 -46.08,8.404 -3.7467,-6.93066 -6.5334,-13.46266 -8.44,-19.636 -1.84,-6.13333 -2.7867,-13.46266 -2.7867,-22.02533 11.7467,-4.024 23.5333,-6.932 35.28,-8.84267 11.7467,-1.872 22.7067,-2.788 32.8667,-2.788 27.8,0 49.5066,6.692 65.12,20.03467 15.6533,13.34267 23.4533,34.77067 23.4533,64.124 v 120.284 c -9.36,2.90666 -20.7067,5.73466 -34.0533,8.404 -13.3867,2.668 -28.48,3.98266 -45.32,3.98266 -13.6267,0 -26.1334,-1.19466 -37.44,-3.58533 -11.4,-2.428 -21.16,-6.41067 -29.28,-12.02667 -8.16,-5.616 -14.4134,-12.82533 -18.84,-21.66666 -4.4134,-8.804 -6.6134,-19.636 -6.6134,-32.46134 0,-12.82533 2.7467,-23.58 8.2134,-32.26266 5.4933,-8.68133 12.5466,-15.61333 21.2266,-20.82933 8.68,-5.21867 18.4,-8.96267 29.0667,-11.232 10.68,-2.272 21.4,-3.42534 32.0667,-3.42534 7.7733,0 16.2933,0.43734 25.6533,1.23467 z m 0,41.264 c -3.1867,-0.51867 -6.6533,-0.956 -10.4,-1.39467 -3.7467,-0.39733 -7.0933,-0.59733 -10.04,-0.59733 -13.0933,0 -23.4533,2.34933 -31.0667,7.01066 -7.6,4.69867 -11.4266,12.22667 -11.4266,22.66134 0,6.97066 1.48,12.308 4.4266,16.01066 2.9467,3.78534 6.4534,6.49334 10.6267,8.24534 4.1467,1.712 8.52,2.78933 13.2267,3.18666 4.6533,0.39734 8.72,0.59734 12.2266,0.59734 4.0267,0 8.0134,-0.31734 12.0267,-0.99467 3.9867,-0.67733 7.4533,-1.236 10.4,-1.79333 v -52.932"
         style="fill:#f9a70d;fill-opacity:1;fill-rule:nonzero;stroke:none;stroke-width:0.133333" />
      <path
         id="path11"
         d="M 2021.8399,708.48799 H 1995.8 l -1.9867,-8.04667 74.9466,-95.78799 h 9.2 v 60.53999 h 48.5067 c 0.8,3.98267 1.32,7.608 1.6,10.79334 0.28,3.22533 0.4,6.572 0.4,10.03733 0,3.744 -0.12,7.368 -0.4,10.832 -0.28,3.46667 -0.8,7.36933 -1.6,11.632 h -48.5067 v 81.32933 c 0,8.28533 0.64,14.976 2,20.07467 1.3467,5.05866 3.2534,9.08 5.8134,12.02933 2.5466,2.94667 5.6933,4.936 9.44,6.01333 3.6933,1.036 8.16,1.592 13.2133,1.592 3.9867,0 7.9733,-0.31733 11.8267,-0.99466 3.8666,-0.67734 7.2933,-1.27467 10.2,-1.792 1.88,5.05733 3.2266,10.35466 4.0266,15.812 0.8,5.496 1.2,10.35466 1.2,14.61733 0,2.94667 -0.04,5.416 -0.2,7.408 -0.12,2.032 -0.32,3.94267 -0.6,5.81467 -12.3066,2.98666 -25.0133,4.42133 -38.08,4.42133 -24.3333,0 -42.8933,-5.656 -55.72,-17.04667 -12.8266,-11.352 -19.24,-29.832 -19.24,-55.48133 v -93.79733"
         style="fill:#f9a70d;fill-opacity:1;fill-rule:nonzero;stroke:none;stroke-width:0.133333" />
      <path
         id="path12"
         d="m 2215.0533,786.23465 c 1.04,16.00934 6.6933,27.68 16.8533,34.848 10.1467,7.24934 23.4933,10.83467 40.0667,10.83467 9.08,0 18.36,-0.87733 27.84,-2.58933 9.52,-1.752 18.52,-4.22134 27.04,-7.40667 2.9866,5.336 5.4933,11.748 7.6533,19.236 2.1067,7.488 3.3467,15.49333 3.6133,24.05733 -20.8666,8.00534 -44.4,11.988 -70.5733,11.988 -19.24,0 -35.72,-2.66933 -49.5067,-8.00533 -13.7733,-5.33733 -24.9733,-12.74533 -33.6533,-22.224 -8.68,-9.48133 -15.0933,-20.792 -19.24,-33.89467 -4.1467,-13.104 -6.2133,-27.36266 -6.2133,-42.89733 0,-15.21333 2.1066,-29.512 6.4133,-42.85466 4.2667,-13.384 10.64,-25.01334 19.04,-34.892 8.4,-9.876 18.84,-17.68267 31.2667,-23.45734 12.4266,-5.736 26.92,-8.604 43.4933,-8.604 14.4133,0 27.24,2.54934 38.4667,7.60667 11.24,5.09867 20.8,12.02933 28.68,20.83067 7.8533,8.84266 13.8266,19.31866 17.84,31.46666 3.9866,12.18534 5.9733,25.21067 5.9733,39.11067 0,5.05867 -0.1467,10.07733 -0.5867,15.016 -0.4,4.94 -0.88,8.88133 -1.4,11.83066 z m 81.3733,-39.67199 c -0.56,-12.864 -4.0667,-23.21867 -10.64,-31.06534 -6.5733,-7.88666 -15.6933,-11.83066 -27.44,-11.83066 -13.3867,0 -23.5333,3.744 -30.4667,11.232 -6.9333,7.448 -11.1066,18.044 -12.4266,31.664 h 80.9733"
         style="fill:#f9a70d;fill-opacity:1;fill-rule:nonzero;stroke:none;stroke-width:0.133333" />
      <path
         id="path13"
         d="m 2395.0399,665.19332 c 3.7067,-0.79733 7.4534,-1.396 11.1867,-1.832 3.7467,-0.4 7.8933,-0.59733 12.44,-0.59733 4.5333,0 8.56,0.19733 12.0667,0.59733 3.4533,0.436 7.04,1.03467 10.7866,1.832 0.8,1.31467 1.52,3.26667 2.1867,5.77467 0.68,2.54933 1.28,5.25733 1.84,8.044 0.52,2.79067 0.9867,5.53733 1.3867,8.20667 0.4,2.708 0.72,4.93866 1,6.84933 2.6666,-4.02133 5.8933,-8.044 9.64,-12.068 3.7466,-3.98267 8.08,-7.60667 12.9866,-10.79333 4.9334,-3.22667 10.5067,-5.81467 16.64,-7.84534 6.1334,-1.992 12.9467,-2.988 20.48,-2.988 23.4934,0 41.2267,6.412 53.0934,19.23734 11.9066,12.824 17.84,33.01866 17.84,60.54 v 132.27199 c -9.64,1.59334 -19.12,2.39067 -28.48,2.39067 -9.36,0 -18.84,-0.79733 -28.44,-2.39067 V 755.36666 c 0,-14.41867 -2.2267,-25.49067 -6.6134,-33.25867 -4.4133,-7.76533 -12.1066,-11.62933 -23.0533,-11.62933 -4.5467,0 -9.2,0.676 -14.0267,1.992 -4.8133,1.35333 -9.16,3.94133 -13.0266,7.80666 -3.8934,3.90267 -7,9.31867 -9.4267,16.25067 -2.4,6.96933 -3.6267,16.00933 -3.6267,27.24133 v 108.65333 c -9.6,1.59334 -19.08,2.39067 -28.44,2.39067 -9.36,0 -18.84,-0.79733 -28.44,-2.39067 V 665.19332"
         style="fill:#f9a70d;fill-opacity:1;fill-rule:nonzero;stroke:none;stroke-width:0.133333" />
      <path
         id="path14"
         d="m 2637.5199,667.97999 c 1.5867,-0.27733 3.6267,-0.47733 6.0134,-0.59733 2.4266,-0.11867 4.4266,-0.19734 6.0133,-0.19734 1.6,0 3.6267,0.0787 6.0133,0.19734 2.4267,0.12 4.4267,0.32 6.0134,0.59733 l 2.4,28.08133 c 5.6133,-8.564 13.6933,-16.172 24.2533,-22.86266 10.5467,-6.69067 24.2533,-10.03734 41.0933,-10.03734 12.5467,0 24.0667,1.952 34.4534,5.816 10.44,3.86267 19.32,9.956 26.6933,18.24134 7.32,8.28266 13.0667,18.72 17.2,31.26533 4.1467,12.58667 6.2133,27.68133 6.2133,45.28533 0,17.644 -2.3866,33.49733 -7.2133,47.51733 -4.8133,14.01867 -11.8267,25.928 -21.0267,35.64534 -9.24,9.79866 -20.5866,17.28666 -34.0933,22.464 -13.4533,5.21733 -28.9067,7.80666 -46.28,7.80666 -6.4133,0 -13.3333,-0.51733 -20.8267,-1.592 -7.4933,-1.036 -14.3066,-2.66933 -20.4666,-4.82133 v 96.23866 c -1.6,0.23867 -3.8667,0.43734 -6.8134,0.59734 -2.9466,0.11733 -5.0666,0.19733 -6.4133,0.19733 -1.6,0 -3.7867,-0.08 -6.6133,-0.19733 -2.7867,-0.16 -5.0267,-0.35867 -6.6134,-0.59734 z m 26.4534,178.396 c 6.16,2.38933 12.4933,4.18133 19.0266,5.37466 6.5734,1.19467 15.2934,1.83334 26.2534,1.83334 10.44,0 20.3066,-1.672 29.6666,-5.01867 9.36,-3.34667 17.5334,-8.64133 24.4667,-15.812 6.96,-7.24933 12.4133,-16.40933 16.44,-27.48267 4.0267,-11.07066 6.0133,-24.37466 6.0133,-39.86799 0,-24.61467 -4.6133,-43.852 -13.8133,-57.75334 -9.24,-13.85866 -24.1467,-20.828 -44.7333,-20.828 -6.3734,0 -13.3467,1.07467 -20.8267,3.22534 -7.4933,2.11066 -14.3467,5.776 -20.64,11.032 -6.2933,5.17866 -11.5067,11.98933 -15.6533,20.432 -4.1334,8.404 -6.2,19.03866 -6.2,31.86266 v 93.00267"
         style="fill:#231f20;fill-opacity:1;fill-rule:nonzero;stroke:none;stroke-width:0.133333" />
      <path
         id="path15"
         d="m 2982.0799,737.32266 c 0,-17.644 -4.1466,-30.50934 -12.3866,-38.67467 -8.32,-8.124 -20.5867,-12.22667 -36.92,-12.22667 -10.68,0 -20.44,0.756 -29.24,2.19067 -8.84,1.47333 -16.72,3.26667 -23.6534,5.41733 -1.36,-2.38933 -2.4666,-5.85466 -3.3866,-10.396 -0.96,-4.54133 -1.44,-8.84133 -1.44,-12.86533 6.9733,-2.11067 15.5066,-3.90267 25.6533,-5.376 10.16,-1.47333 20.6,-2.18933 31.2667,-2.18933 25.9333,0 45.1733,5.65466 57.76,17.00533 12.5466,11.352 18.7866,29.196 18.7866,53.52933 v 135.06133 c -9.32,1.91067 -20.6666,3.744 -34.0533,5.616 -13.3733,1.872 -26.04,2.788 -38.0667,2.788 -24.8533,0 -44.4133,-4.89866 -58.7066,-14.81733 -14.3467,-9.876 -21.4667,-25.92933 -21.4667,-48.112 0,-10.67467 2.0667,-20.23333 6.2133,-28.63733 4.1334,-8.40534 9.8667,-15.49333 17.24,-21.22933 7.3334,-5.776 16.1734,-10.076 26.4534,-13.064 10.2666,-2.908 21.5866,-4.38 33.8933,-4.38 9.6,0 17.88,0.31733 24.8533,0.99466 6.92,0.67734 12.6534,1.27467 17.2,1.792 z m 0,35.68666 c -4.5466,-0.556 -10.2,-1.15333 -17,-1.792 -6.8533,-0.67733 -13.3066,-1.036 -19.48,-1.036 -20,0 -35.5333,3.744 -46.48,11.232 -10.96,7.488 -16.4533,18.20267 -16.4533,32.06267 0,8.84266 1.6667,15.892 5.0133,21.22933 3.3467,5.37733 7.6934,9.43867 13.0267,12.268 5.3733,2.78667 11.24,4.65867 17.6533,5.57467 6.4,0.95733 12.8134,1.43333 19.2267,1.43333 8.2933,0 16.0533,-0.39733 23.2667,-1.19467 7.2133,-0.79466 14.2933,-1.91066 21.2266,-3.22533 v -76.552"
         style="fill:#231f20;fill-opacity:1;fill-rule:nonzero;stroke:none;stroke-width:0.133333" />
      <path
         id="path16"
         d="m 3070.9333,667.97999 c 2.16,-0.27733 4.1866,-0.47733 6.2133,-0.59733 2,-0.11867 3.9467,-0.19734 5.8133,-0.19734 2.12,0 4.1467,0.0787 6.0267,0.19734 1.8667,0.12 3.8533,0.32 6.0133,0.59733 0.52,4.82133 0.9067,10.51733 1.1867,17.048 0.24,6.532 0.4,12.46667 0.4,17.844 5.3333,-9.87867 12.8267,-18.24267 22.4267,-25.05467 9.64,-6.84933 22.3466,-10.23466 38.12,-10.23466 h 4.2133 c 1.44,0 3.1067,0.12 4.9867,0.39733 0.8266,4.54133 1.1866,8.804 1.1866,12.82533 0,4.30267 -0.36,8.444 -1.1866,12.42667 -2.16,-0.23867 -3.8267,-0.39733 -4.9867,-0.39733 h -3.8133 c -18.2134,0 -32.7467,5.77466 -43.6934,17.24533 -10.96,11.47067 -16.4533,30.58933 -16.4533,57.31333 v 105.02933 c -1.6,0.28 -3.8267,0.43867 -6.6133,0.59734 -2.8267,0.12 -5.0134,0.2 -6.6134,0.2 -1.3466,0 -3.4666,-0.08 -6.4133,-0.2 -2.9467,-0.15867 -5.2133,-0.31734 -6.8133,-0.59734 V 667.97999"
         style="fill:#231f20;fill-opacity:1;fill-rule:nonzero;stroke:none;stroke-width:0.133333" />
      <path
         id="path17"
         d="m 3223.1999,690.44399 h -34.84 c -0.28,-1.35333 -0.48,-3.10667 -0.64,-5.21733 -0.12,-2.14934 -0.2,-4.26267 -0.2,-6.412 0,-2.15067 0.08,-4.14134 0.2,-6.01334 0.16,-1.872 0.36,-3.46666 0.64,-4.82133 h 34.84 v -38.47466 l 24.8534,-24.45467 h 1.6 v 62.92933 h 55.32 c 0.28,1.35467 0.48,2.94933 0.64,4.82133 0.12,1.872 0.16,3.86267 0.16,6.01334 0,2.14933 -0.04,4.26266 -0.16,6.412 -0.16,2.11066 -0.36,3.864 -0.64,5.21733 h -55.32 v 133.06933 c 0,6.69067 0.88,11.948 2.6266,15.812 1.72,3.904 4.0267,6.89067 6.8134,9.04 2.7866,2.11067 6.0133,3.54667 9.6,4.224 3.6266,0.67733 7.28,0.99467 11.0266,0.99467 9.36,0 17.52,-1.19467 24.4534,-3.624 1.88,6.97066 3.2266,14.45733 4.0266,22.46266 -9.64,2.94667 -20.8666,4.38267 -33.6933,4.38267 -15.2133,0 -27.56,-4.064 -37.08,-12.18933 -9.48,-8.164 -14.2267,-21.46667 -14.2267,-39.908 v -134.264"
         style="fill:#231f20;fill-opacity:1;fill-rule:nonzero;stroke:none;stroke-width:0.133333" />
      <path
         id="path18"
         d="m 3363.9199,774.20399 c 0,27.24266 6.2933,47.27866 18.88,60.14133 12.5067,12.82533 31.3867,19.23867 56.48,19.23867 10.1467,0 19.5867,-0.876 28.28,-2.628 8.68,-1.71334 17.16,-4.06267 25.4533,-7.012 1.3467,2.94933 2.3867,6.57333 3.2267,10.83466 0.7467,4.26267 1.3067,8.12534 1.5867,11.63067 -7.7734,3.464 -16.8534,6.13333 -27.28,8.00533 -10.4,1.872 -21.7867,2.788 -34.0534,2.788 -17.6533,0 -32.8266,-2.58933 -45.4933,-7.80666 -12.6933,-5.21734 -23.1333,-12.46534 -31.2667,-21.82534 -8.16,-9.36 -14.1733,-20.51333 -18.04,-33.49733 -3.8533,-12.944 -5.8133,-27.16267 -5.8133,-42.656 0,-14.976 1.8,-28.996 5.4133,-42.1 3.5867,-13.10266 9.08,-24.57333 16.4134,-34.492 7.3733,-9.876 16.7733,-17.60266 28.28,-23.21866 11.4666,-5.616 25.2533,-8.44534 41.2666,-8.44534 13.3734,0 25.2934,2.26934 35.68,6.81067 10.44,4.58133 19.2,10.91333 26.2534,19.07733 7.08,8.12667 12.4266,17.88534 16.0533,29.23467 3.5733,11.35333 5.4133,23.73867 5.4133,37.08267 0,2.38933 -0.08,5.49466 -0.2,9.23866 -0.16,3.744 -0.36,6.932 -0.6,9.59867 z m 120.28,-22.02533 c 0,-8.284 -1.0667,-16.448 -3.2267,-24.45467 -2.1466,-8.04533 -5.4933,-15.056 -10.0266,-21.06933 -4.5467,-6.01334 -10.4,-10.87334 -17.6134,-14.61734 -7.24,-3.744 -15.9333,-5.616 -26.08,-5.616 -18.68,0 -33.2666,5.736 -43.6533,17.24534 -10.44,11.47066 -16.7333,27.64266 -18.88,48.512 h 119.48"
         style="fill:#231f20;fill-opacity:1;fill-rule:nonzero;stroke:none;stroke-width:0.133333" />
      <path
         id="path19"
         d="m 3581.1866,690.44399 h -25.6534 c -0.28,-1.35333 -0.48,-2.94667 -0.5866,-4.81867 -0.16,-1.872 -0.24,-3.864 -0.24,-6.01466 0,-2.11067 0.08,-4.26 0.24,-6.412 0.1066,-2.15067 0.3066,-3.864 0.5866,-5.21867 h 52.1067 v 204.44266 c -1.6,0.23867 -3.8267,0.43867 -6.6133,0.59734 -2.7867,0.12 -5.0267,0.2 -6.6134,0.2 -1.36,0 -3.4666,-0.08 -6.4133,-0.2 -2.9467,-0.15867 -5.2133,-0.35867 -6.8133,-0.59734 z m -13.2267,-72.568 c -0.2667,-2.38933 -0.4667,-5.336 -0.6,-8.84266 -0.1467,-3.42534 -0.1867,-6.372 -0.1867,-8.80134 0,-2.112 0.04,-4.82 0.1867,-8.00533 0.1333,-3.188 0.3333,-5.896 0.6,-8.00667 2.4,-0.27866 5.3467,-0.47733 8.8133,-0.636 3.4534,-0.12 6.4,-0.16133 8.84,-0.16133 2.1067,0 4.7734,0.0413 8,0.16133 3.2267,0.15867 5.8534,0.35734 8,0.636 0.28,2.11067 0.48,4.81867 0.6,8.00667 0.12,3.18533 0.24,5.89333 0.24,8.00533 0,2.42934 -0.12,5.376 -0.24,8.80134 -0.12,3.50666 -0.32,6.45333 -0.6,8.84266 -2.1466,0.28 -4.7733,0.47734 -8,0.59734 -3.2266,0.12 -5.8933,0.23866 -8,0.23866 -2.44,0 -5.3866,-0.11866 -8.84,-0.23866 -3.4666,-0.12 -6.4133,-0.31734 -8.8133,-0.59734"
         style="fill:#231f20;fill-opacity:1;fill-rule:nonzero;stroke:none;stroke-width:0.133333" />
    </g>
  </g>
</svg>
